<?xml version="1.0" encoding="UTF-8"?>
<svg id="Layer_1" data-name="Layer 1" xmlns="http://www.w3.org/2000/svg" viewBox="0 0 399.92 400">
  <defs>
    <style>
      .cls-1 {
        fill: #826ba0;
      }
    </style>
  </defs>
  <g>
    <g>
      <path class="cls-1" d="M176.87,321.52c-2.73-2.16-5.86-4.59-9.1-6.55.18,4.81.54,9.59,1.03,14.32,1.26,1.12,2.54,2.21,3.85,3.24,4.17-.12,8.88-.9,13.82-2.9-3.19-2.8-6.39-5.57-9.6-8.12Z"/>
      <g>
        <path class="cls-1" d="M309.12,111.12c-.14,1.29-.38,2.72-.84,4.2-1.89,6.08-9.39,16.2-15.88,19.65-.53.28-1.1.53-1.73.76-.92,2.63-1.84,5.45-1.97,5.92-.79,3.03-2.87,11.04-1.29,13.55,4.92,7.82,13.52,14.36,22.53,20.56v-64.63c-.26,0-.55,0-.83,0Z"/>
        <path class="cls-1" d="M313.56,351.33h18.19v-7.7c-5.46,0-9.68-.57-12.9-3.02-1.66,3.68-3.42,7.26-5.29,10.72Z"/>
      </g>
      <g>
        <path class="cls-1" d="M115.26,349.68c-.33-.03-.67-.07-1.02-.12-.47-.07-.89-.15-1.23-.22-.8-.16-4.91-1.02-7.32-2.51-.29-.18-.59-.38-.9-.62l-2.99-1.67s-.36-.18-2.25-.77c-1.8-.57-3.82-1.21-5.65-2.28-1.71-1-3.05-2.4-3.9-4.08l-9.02-4.46c-3.28,9.14-8.95,10.68-17.99,10.68v7.7h51.92l.34-1.66Z"/>
        <path class="cls-1" d="M199.27,340.6c-1.71-1.37-3.37-2.77-5-4.17-3.21,1.65-6.56,2.95-10.03,3.86-4.07,1.08-8.31,1.63-12.71,1.63h-1.06l.77,5.09-11.82,3.16.02,1.12c5.96-.02,11.18-.05,11.91-.09,3.82-.2,7.55-.6,11.18-1.21h0c5.14-.86,10.09-2.13,14.83-3.82,2.03-.71,4.02-1.5,5.97-2.36-1.37-1.06-2.73-2.13-4.08-3.22Z"/>
      </g>
      <g>
        <path class="cls-1" d="M46.9,137.35v57.26l5.83-2.76c3.48-1.65,7.26-2.79,11.28-3.41-3.87-7.09-15.16-9.01-15.16-9.01,0,0,2.71-3.6,5.93-6.29,2.48-2.08,5.65-3.4,5.68-3.41-4.18-6.59-8.72-19.12-7.38-24.62l1.81-7.43,2.49.14c.5-1.48,1.28-2.8,2.34-3.94,1.29-1.4,2.97-2.39,4.97-3v-5.4c0-8.08,1.07-13.52,3.33-17.13.04-1.93.26-3.9.73-5.85l1.29-5.33,5.15-1.35c0-.25-.01-.51-.02-.76H30.32v5.48c12.59,0,16.58,3.65,16.58,36.81Z"/>
        <path class="cls-1" d="M84.5,307.99h2.61c1.17-2.21,2.33-4.44,3.45-6.69h-4.48c-.47,0-.93,0-1.38-.01-3.65-.06-6.74-.41-9.33-1.28-7.47-2.53-10.68-9.48-10.68-27v-58.68c-3.94-2.03-7.94-3.97-11.93-5.84l-5.86-2.75v59.36c0,33.76-3.99,37.41-16.58,37.41v5.47h54.18Z"/>
      </g>
      <g>
        <path class="cls-1" d="M99.7,269.93c.06-.24.14-.49.22-.74-1.11-2.47-1.66-4.76-1.67-6.99,0-1.36.19-2.72.58-4.15-.4-.78-.69-1.5-.91-2.25-1.13-3.77-1.03-7.88.28-11.89.33-.99.79-1.97,1.41-2.99,0-.1,0-.2,0-.3-1.49-1.9-3.53-4.29-4.31-5.1-3.13-3.25-6.68-6.24-10.5-9.04v65.44c.41.01.83.01,1.28.01h9c1.83-3.89,3.6-7.78,5.33-11.6-1.39-3.3-1.64-6.89-.71-10.41Z"/>
        <path class="cls-1" d="M83.95,85.71c.09.98.16,2.01.24,3.06.19-.05.39-.11.56-.14,1.54-.32,3.17-.36,4.84-.14,2.2-2.25,5.41-3.29,8.68-2.82,1.16-6.56,4.36-12.63,9.09-17.17l5.65-5.41,3.53,2.66c4.46-3.54,10.78-4.62,19.17-4.62,2.9,0,24.94.16,32.98.46,4.31-3.08,8.87-5.79,13.63-8.14-3.57-.63-7.23-1.09-10.98-1.37-3.12-.24-32.13-.35-35.36-.35H63.01v7.7c12.84,0,18.87,3.09,20.94,26.27Z"/>
      </g>
      <g>
        <path class="cls-1" d="M315.69,65.93c3.42-5.44,8.58-6.5,16.06-6.5v-7.7h-22.11c2.75,4.47,4.78,9.23,6.05,14.2Z"/>
        <path class="cls-1" d="M158.79,85.7c.16.02.31.05.47.08,1.01.2,1.96.53,2.83.99,2.15-.98,4.19-1.31,6.23-1.01.15.02.63.12.63.12l.53.13c3.37.83,5.37,3.21,6.64,5.34,3.91-5.49,8.22-10.3,12.96-14.35,2.64-2.27,5.41-4.29,8.31-6.08,2.35-1.45,4.78-2.75,7.3-3.89.15-1.04.29-2.12.42-3.24.33-2.71.73-5.89,1.63-9.16-3.2.75-6.33,1.62-9.35,2.67-5.34,1.81-10.42,4.07-15.21,6.77-3.79,2.11-7.39,4.49-10.81,7.14-5.4,4.16-10.36,8.98-14.87,14.42.74-.06,1.51-.05,2.31.07Z"/>
      </g>
      <g>
        <path class="cls-1" d="M347.84,265.11v-14.67c-2.12,11.9-5.89,23.59-9.23,33.94l-.43,1.35c-.63,1.95-1.24,3.86-1.83,5.73l-.93,2.99c-1.36,4.34-2.78,8.89-4.3,13.54h33.32v-5.47c-12.59,0-16.59-3.65-16.59-37.41Z"/>
        <path class="cls-1" d="M319.58,95.06h-5.03c-.27.85-.51,1.69-.83,2.54-.53,1.41-1.23,2.86-1.94,4.23,2.88.12,5.43.44,7.59,1.11,7.35,2.25,10.69,8.28,10.69,22.55v64.47c9.92,8.09,15.33,17.7,17.78,27.99v-80.59c0-33.16,4-36.81,16.59-36.81v-5.48h-44.86Z"/>
      </g>
    </g>
    <g>
      <path class="cls-1" d="M322.97,196.54c-14-10.87-33.96-20.76-43.67-36.19-3.62-5.76-1.48-14.41.17-20.77.35-1.34,3.57-10.95,4.04-11.33.17-.14,3.18-.6,4.24-1.16,3.98-2.11,10.08-9.97,11.41-14.25.94-3.03.36-5.89.99-8.34.62-2.45,3.51-6.92,4.61-9.86,8.13-21.79-1.33-42.94-20.62-54.6-17.26-10.43-42.24-14.01-55.9,3.73-1.99,2.59-1.72,1.46-4.43,2.81-11.21,5.55-8.64,17.07-11.32,26.81-.5,1.81-1.45,3.15-1.73,5.16-.26,1.89.38,3.86.26,5.57-.45,6.45-4.17,11.31-5.35,17.42-1.15,5.94-.26,12.47-1.03,18.42-.95,7.35-4.32,14.64-3.94,22.15.21,4.06,1.75,8.36,4.13,11.58l-10.8,4.22c2-4.14,3.72-8.48,4.32-13.08.57-4.41.72-5.26-4.21-4.92-.32-1.64.03-6.1-1.09-7.31-1.85-2-9.42,1.6-11.43,2.92l.67-5.33c-1.59-1.98-9.35,3.4-10.82,4.53-9.44,7.24-13.14,16.72-7.24,27.78-.05.18-3.03,1.18-3.45,1.26-.39.08-.42.39-.71-.19.03-1.82-.03-14.15-.9-14.62-.67-.36-1.7.52-2.2.95-2.19,1.89-3.8,5.13-6.32,6.63,1.59-5,2.64-16.59,7.73-19.09,1.41-.69,3.06-.84,4.63-1.66,9.58-5,13.79-18.06,13.06-28.26-.26-3.63-.7-9.02-5.05-4.37-.45-.07-2.71-7.61-4.31-8.01-1.22-.35-6.21,3.81-7.4,4.66-1.47-4.36-.96-6.4-5.57-3.19-8.01,5.58-12.5,15.39-11.76,25.12.12,1.61.61,3.14.88,4.72-1.72-2.08-3.46-5.08-6.13-5.98-1.67.12-2.14,5.66-2.82,6.95l-4.26-3.32c-.65-7.72,6.64-11.16,9.71-17.27,4.05-8.08,1.42-20.76-3.35-28.17-2.76-4.28-3.87-4.64-5.79.57-.61.28-1.6-2.25-2.01-2.81-.62-.84-2.89-3.61-3.75-3.83-1.88-.48-5.58,4.62-6.98,5.85l-4.05-3.05c-10.24,9.81-8.23,26.62,1.9,35.77,3.7,3.34,8.54,4.93,9.93,10.29.2.79.52,3.1.32,3.79-.24.77-2.89,3.28-3.43,4.31-1.14-1.39-3.51-6.34-5.32-3.65-3.5,5.21-4,15.24-2.52,21.24,1.66,6.77,5.77,10.79,11.94,13.82l.57,6.65c-3.19-4.38-6.42-9.69-11.57-11.91-1.43-6.46-7.26-15.2-5.1-21.79.44-1.36,1.61-3.06,2.15-4.5,4.57-12.24-1.53-25.63-12.04-32.54-.73-.48-3.93-2.71-4.5-1.52l-1.07,5.39c-2.18-1.34-5.72-3.4-8.37-2.85-2.12.44-1.96,6.18-1.94,8.03-2.29-.83-4.53-1.63-6.97-.99-1.59,6.55,1.07,16.29,4.77,21.83,5.22,7.81,10.64,7.72,18.4,10.64,2.96,1.11,4.38,4.55,5.4,7.29l3.59,12.8c-1.72-.2-4.4-2.54-6.15-1.91-1.45.52-2.58,5.23-3.03,6.63-.15.45-.38.92-.75.36-.51-4.11.54-8.06-.53-12.13-2.66-10.15-14.79-16.61-24.7-16.77-1.45.71.15,5.6.71,6.85-1.77-.61-7.67-1.51-8.93-.15-1.34,1.46.15,5.66.61,7.44l-5.06-.28c-1.27,5.21,3.08,11.75,6.33,15.65,5.6,6.73,15.08,14.12,23.91,8.53l1.68,10.64c-9.39-6.84-17.22-8.79-28.91-6.07-.37.09-2.72.4-2.29,1.08,13.08,6.12,14.11,8.78,27.16,23.62-10.49-3.97-22.86-5.48-33.23-.57,15.81,7.42,33.02,16.3,45.25,28.97,1.33,1.37,7.19,8.21,7.42,9.64.07.42-.49,1.15-.53,1.79-.05.86.25,2.15.1,2.8-.17.75-1.55,2.14-1.97,3.42-.68,2.08-.84,4.29-.21,6.39.35,1.18,2.16,3.54,2.19,4,.03.61-1.48,2.87-1.47,4.99.01,2.78,2.49,5.81,2.56,6.91.03.54-1.17,2.26-1.42,3.21-.88,3.33.64,5.05,2.01,7.82-7.02,15.61-14.08,31.26-23.13,45.79l6.8,3.36.79-.35,20.14-44.95,1.45,1.33.02.84c-6.01,15.7-11.79,31.5-18.52,46.91.02.27.18.39.4.52,1.91,1.11,5.66,1.78,7.77,2.98l16.22-48.01c2.5.89,1.07,4.42.6,6.5-1.91,8.34-4.54,17.18-7.09,25.38-1.69,5.45-4.34,11.35-5.73,16.76-.18.69-.47,1.43.22,1.86.92.57,5.97,1.95,6.56,1.39l4.06-13.66-1.93,14.06,4.3.85,7.32-49.08c2.2.48,1.8,2.07,1.62,3.93-1,10.71-3.3,21.74-4.69,32.41-.57,4.41-.71,8.9-1.6,13.27,1.05,0,4.47,1.41,5.02.43l1.71-11.82.53,11.4,4.98.69,1.7-46.76,2.08,1.33c0,10.58-.46,21.17-.28,31.75.06,3.55-.27,10.06.37,13.24.07.34-.03.71.38.91l7.39-.23-1.01-43.51,2.54,1.09c.53,13.8-.44,27.86,2.26,41.45l7.05-1.89c-1.68-11.07-2.5-22.36-2.5-33.58,0-.62-.19-4.85.35-4.81,9.13,1.29,16.8,6.89,23.82,12.45,7.69,6.09,14.8,12.97,22.45,19.12,17.37,13.98,38.88,27.55,59.85,35.41,16.11,6.04,22.69,4.37,32.82-9.43,14.08-19.18,22.74-48,29.86-70.7,9.28-29.58,25.31-69.44-4.26-92.41ZM87.78,100.56c2.55.31,4.85,2.22,6.83,3.79l.65,7.17-7.19-9.67c-.28.77.56,2.38.94,3.1.66,1.25,3.71,5.46,3.9,6.29.04.19-.05.57-.26.46-.98-1.44-4.45-2.75-5.22-3.96-.62-.97-.24-6.93.36-7.16ZM99.72,132.77c-5.11-2.68-9.33-7.48-12.84-11.92.4,2.54,1.85,4.76,3.27,6.85l5.28,5.5c-11.21-2.89-15.72-15.33-15.85-25.82,10.33,3.65,17.63,12.13,21.85,21.96,1.19,2.78,2.7,5.76-1.71,3.44ZM110.17,128.21l-.13-4.08c-.28-3.34-1.72-7.72-3.35-10.67-.15-.27-2.75-4.36-2.61-3.13,2.6,6.46,6.5,15.56,1.69,21.82-2.96-6.44-6.38-12.53-7.54-19.63-.48-2.93-1.25-10.05-.67-12.76.11-.5-.04-.99.63-.71,3.69,1.57,9.53,8.66,11.11,12.37.83,1.95,2.51,8.44,2.14,10.33l-1.28,6.45ZM287.93,236.23l4.5-7.63c-3.6,13.49-8.85,26.46-14.94,38.98l.22-2.89c2.62-9.75,5.81-19.37,10.22-28.46ZM277.31,164.41c1.56,1.93,3.36,5.18,3.81,7.63,1.22,6.66-3.07,16.75-5.53,23.03-2.81,7.16-6.18,14.09-9.24,21.14l-7.94-1.57c7.28-16.3,15.57-32.5,18.89-50.23ZM169.31,209.06c3.11-3.22,7.74-7.46,11.44-9.91.53-.35.58-.63,1.38-.29l-29.62,36.76c4.48-9.73,9.32-18.8,16.8-26.55ZM148.82,235.91l-.94.5c1.81-8.52,5.14-17.15,8.53-25.19,4.56-10.82,10.7-21.35,18.63-30.04.31-.34,2.78-3.37,3.21-2.7-7.01,20.55-20.69,37.7-29.44,57.42ZM215.18,218.78c-.33-.08-1.4-.51-1.03-1.04.34-.49,6.55-4.5,7.52-5.05,7.4-4.2,15.8-5.7,24.09-7.08.51,1.11-3.6,6.5-4.53,7.58-5.81,6.73-14.79,11.28-23.67,8.14l6.84-1.56c3.25-1.18,6.67-2.63,9.38-4.85.92-.75,2.63-2.23,2.7-3.25-5.23,3.7-14.76,8.68-21.31,7.11ZM241.79,199.45c-1.17,3.6-1.81,4.44-5.68,4.58l1.88-3.41c-2.92,1.98-4.5,4.97-8.42,5.2.92-.9,1.74-1.89,2.47-2.96.78-1.15,2.34-4.6,2.89-5.11,1.28-1.16,5.67-.61,7.38-.75-.17.81-.26,1.65-.52,2.44ZM219.42,211.05l-7.13,4.77c-1.36-1.8-.37-3.88.5-5.67,3.06-6.24,9.85-11.07,15.16-15.29-1.19-.02-2.68.89-3.74,1.49-5.22,2.95-9.67,7.18-13.2,12,1.57-10.57,12.88-18.48,23.41-16.67-2.72,8.08-8.17,14.45-15,19.38ZM215.44,191.81c-4.35,3.89-10.54,7.01-16.51,5.55l6.95-2.26c3.91-2.18,7.2-5.13,10.04-8.57,2.39-2.9,3.61-6.54,8.17-6.87-1.19,4.73-5.08,8.96-8.65,12.15ZM208.76,206.56c.01,3.15.26,6.67-1.97,9.18-3.28,3.7-14.27,8.97-19.02,11.89-2.74,1.69-5.21,3.86-8.22,5.08l5.92-5.94c3.6-3.96,9.72-12.64,11.1-17.71.12-.44.45-.93-.3-.87-6.29.5-13.18,5.1-18.61,7.99l11.84-12.96c.77-.78,1.4.14,2.16.23,5.73.69,11.41,1.91,17.09,3.11ZM161.53,236.01c7.79-9.45,17.83-16.59,28.63-22.17l-7.34,8.97c-5.27,5.58-11,10.91-17.24,15.39-1.21.87-5.84,4.51-7.03,3.27-.37-1.81,1.85-4.08,2.98-5.46ZM195.85,233.27c9.04-1.54,18.39.25,27.02,2.87l-17.89.06c-6.39.16-12.67,1.41-18.75,3.28l-12.81,5.08c6.23-5.71,14.02-9.86,22.43-11.29ZM212.03,242.87c7-1.57,14.15-2.58,21.24-3.64.31-.73.02-.55-.28-.83-1.1-1.04-3.94-2.56-5.37-3.29-9.43-4.78-20.17-7.36-30.75-6.54,3.49-2.16,10.45-7.91,14.64-7.09,1.92.37,4.13,1.98,6.07,2.56,9.94,3,19.54-2.66,26.3-9.48l25.27,6.67-4.78,17.09c-.58,2.76-1.01,5.55-1.62,8.3-.19.87-.68,1.6-.88,2.55-3.64,17.54-4.02,35.48-4.35,53.3-20.63-4.94-40.52-13.02-58.57-24.06-5.95-3.64-12.65-7.44-16.12-13.6-2.22-3.95-3.55-8.46-6.18-12.22,11.98-2.54,23.43-7.05,35.38-9.73ZM295.85,103.21c1.07,1.8.02,6.55-.56,8.54-1.1,3.81-6.74,12.09-10.46,13.52-1.1.42-3,.29-3.7.9-.62.55-1.66,3.23-2.08,4.18-1.3,3.01-2.76,6.96-3.55,10.12-3.78,15.04.63,23.52-13.42,34.82-10.26,8.25-23.36,11.94-36.32,8.11.43-1.1,1.75-5.07,1.37-5.94-.57-1.29-4.62.23-5.74.26.54-2.1,2.45-7.36,1.65-9.28-.91-2.2-7.09-.72-7.49-1.16l.85-6.02c8.84,2.05,18.18-1.02,26.99-4.16,12.1-4.31,24.68-6.58,28.69-21.76,2.29-8.67,7.84-26.04,13.89-31.13,2.14-1.81,8.11-4.04,9.9-1.02ZM213.73,122.6c-.22.13.24,2.27.49,2.68.46.77,2.59,1.72,2.26,2.48-8.4,6.4-8.75-6.53-4.23-10.62,2.76,1.91,6.9,2.6,9.62.22,2.78,2.51,6.57,4.49,10.2,5.44,2.27.59,4.59.58,6.84,1.16,2.26,6.41-4.58,13.68-11.04,10.55-.99-.48-4.06-4.51-3.07-5.26,3.09.09,5.59-.52,8.22-2.06.26-.15.63.14.57-.67-.48-.57-11.02-1.42-12.89-1.85-2.33-.54-4.51-1.89-6.96-2.08ZM213.08,164.07l-1.02,4.26c-2.3.99-4.77,2.09-6.88,3.44-.52.34-2.43,2.42-2.93,1.83l1.71-5.26c.89-.45,8.71-4.94,9.12-4.28ZM287.81,54.07c-11.17-7.71-26.48-8.14-39.43-5.75,4.02-3.35,10.38-4.29,15.51-4.05,8.55.39,18.23,3.11,23.92,9.8ZM282.17,44.36c-.04.62-.76.15-1.11.03-12.72-4.32-21.28-7.2-34.88-3.44-.78.21-6.2,2.5-6.4,2.23,12.11-10.04,30.05-7.07,42.39,1.18ZM226.86,51.98c6.83,10.61,19.92,5.66,30.05,5.01,9.32-.6,18.75.93,25.73,7.58-4.21,3.74-7.87,8.64-8.32,14.47-.31,4,2.46,7.99,3.16,11.95,1.24,7.03-1.26,13.83-4.53,19.96-5.01,9.4-13.19,17.31-24.34,17.87.65-9.24-8.08-14.28-15.41-17.52.28-1.52.77-2.89-.41-4.17-.91-.26-.54,1.17-1.05,1.85-.91,1.21-3.46-.86-4.61-1.22-3.29-1.04-5.55.32-8.56-.87-2.65-5.12,3.44-10.23,5.86-14.39,2.55-4.37,4.82-12.96.82-17.06-2.72-2.79-5.98-2.38-9.56-2.64,2.17-7.58,4.18-16.16,11.17-20.81ZM223.56,82.59c.81,1.34,1.03,3.96-.25,5.03-1.7,1.41-6.55.72-8.32-.43-2.02-1.31-.82-5.79-1.28-7.9,3.35-.33,7.92.14,9.85,3.31ZM208.79,111.13c-.38.19-.55.56-1.09.3.38-4.04.24-7.98,1.32-11.95.91-3.36,3.03-6.32,3.66-9.75,3.17,1.7,5.92,2.03,9.39,1.18-3.34,5.06-8.75,10.06-6.42,16.75-2.69.53-4.65,2.38-6.87,3.48ZM203.82,176.16c4.75-4.05,10.41-6.12,16.68-6.16l-1.08,5.46c-1.38,6.99-10.96,17.19-18.14,18.77l-6.36.79c6.51-5.14,12.81-11.15,18.09-17.56.24-.29,1-.88.59-1.26-6.32,4.46-11.46,10.78-17.37,15.63-.55.45-1.58,1.27-2.31,1.27.93-1.64,1.86-3.29,2.68-4.99,2.38-4.91,2.93-8.29,7.21-11.94ZM199.95,164.38c.98-.55,3.37-2.24,2.94-.35-2.3,10.21-7.48,20.1-11.19,29.84-3.78-6.38-.03-14.83,2.47-21.17-.98.41-1.73,1.88-2.28,2.81-2.5,4.25-4.26,9.57-3.9,14.53-.9.64-1.33-3.45-1.36-3.82-.59-9.02,5.7-17.57,13.31-21.83ZM196.04,142.47l-1.74,8.77c-1.35,6.84-12.42,15.69-19.64,14.82-.5-.06-.98.08-.7-.62,5.69-2.72,10.05-6.54,13.71-11.67.59-.82,1.54-2.02,1.73-2.98-4.31,5.03-10.03,11.01-16.53,13.03-.39.12-2.77.97-2.37-.11.63-1.67,3.87-5.34,5.2-6.81,4.37-4.82,9.6-8.73,15.07-12.21l5.26-2.22ZM180.67,139.43c3.12-2.25,6.46-4.43,10.4-4.82.05,1.68.72,5.88-.22,7.17-.63.86-6.69,4.07-8.26,5.24l-6.43,5.61,4.51-13.2ZM164.02,154.01c-.65-7.79,3.45-12.93,9.29-17.42.57-.44,5.96-4.26,6.38-3.54-2.77,10.1-5.29,20.73-11.48,29.35-1.7-.35,1.56-14.8,2.71-16.3-.74.32-1.31,1.7-1.68,2.42-1.89,3.65-3.03,7.27-3.12,11.41-1.09-1.65-1.93-3.94-2.09-5.91ZM164.25,168.5c2.29,9.23-.16,20.9-9.04,25.71,1.21-2.07,2.94-3.81,3.8-6.11,1.88-5.01,2.17-10.78,1.34-16.04l3.9-3.56ZM153.96,192.13c-1.46,1.85-4.2,4.27-6.69,3.94,1.35-11.31,4.52-22.26,7.11-33.31,5.37,8.36,5.94,21.32-.42,29.37ZM153.55,162.59c-3.39,10.82-7.58,21.69-7.94,33.15-5.89-2.99-6.01-11.92-4.44-17.56,1.65-5.91,6.78-13.03,12.38-15.59ZM138.89,227.93c.89-7.16,1.69-14.67,3.59-21.65.13-.46,1.59-5.16,2.55-4.12l-5.62,33.74-1.45.27c-.22-2.84.6-5.51.94-8.24ZM119.68,202.63c-.13-1.08-.31-1.98.09-3.07.4.12.91.06,1.24.33.36.3,2.5,6.99,2.79,8.03,2.4,8.52,3.4,17.49,4.24,26.28l-1.25.09-.57-.45c-1.21-5.57-2.07-11.21-3.22-16.78-.93-4.5-2.78-10.09-3.31-14.42ZM119.6,217.75c-1.79-3.79-2.94-7.84-4.62-11.68-1.23-2.82-2.66-5.58-4.14-8.27,2.99.17,4.17,2.85,5.23,5.25,1.97,4.49,2.75,9.88,3.54,14.7ZM147.12,139.78l-1.39-7.96c3.33,4.38,4.03,8.77,2.88,14.16-.58,2.71-2.14,9.74-3.15,12.01-.32.71-2.33,2.34-3.03,3.19-2.54,3.11-5.21,6.41-6.45,10.3l-.63-10.23c.3-.92,4.83-4.11,5.9-5.26,3.85-4.17,6.24-10.54,5.86-16.21ZM138.46,190.2c-4.81-8.82-.97-19.83,5.48-26.76,2.85,2.64-.05,4.1-1.49,6.35-4.11,6.38-5.14,12.97-3.98,20.42ZM131.9,205.93c.28-2.03.9-5.77,1.52-7.63.15-.45.39-.95.76-.36,1.35,10.55,1.46,21.34-.8,31.81-.56-.2-.43-.78-.54-1.21-1.63-6.3-1.83-16.17-.94-22.61ZM172.32,105.55c.25-.19.11-.63.84-.27,1.13,11.31-2.3,24.67-13.7,29.26,3.91-5.32,7.81-10.83,9.13-17.44-3.87,5.62-6.81,12.26-12.37,16.46,1.83-9.13,6.61-17.58,12.7-24.53,1.03-1.18,2.16-2.51,3.4-3.47ZM165.48,98c1.13.13,2.92,6.17,2.82,7.5l-8.67,10.86c1.09-4.29.87-8.78.27-13.13,1.46-2.09,3.36-3.96,5.59-5.23ZM150.79,102.94c.55-.62,4.66-4.53,5-4.54.7-.01.97,1.81,1.13,2.4,2.19,8.29,1,15.73-1.35,23.86-.62,2.16-1.74,6.09-2.7,7.97-1.52,3.02-2.57-2.05-2.84-3.4-.34-1.73-.86-6.99-.55-8.53l1.21-6.12c-.46-.17-.6.49-.75.81-2.11,4.47-1.99,9.61-2.27,14.41-5.48-8.45-3.43-19.53,3.12-26.86ZM137.68,124.72c7.67,7.29,9.12,20.17,2.56,28.69-.64-.06-.13-.75-.02-1.1.34-1.17,1.16-2.88,1.37-3.95,1.2-6.17-1.66-13.14-4.89-18.25-.41-2,.48-3.54.98-5.39ZM135.83,155.18c-.45.52-2.21,2.29-2.77,2.3-.87.02-1.3-3.7-1.42-4.47-.68-4.54-.65-9.52-1.14-14.16-.41-3.92-1.14-7.81-1.55-11.73,8.67,5.26,14.09,19.62,6.87,28.06ZM134.76,82.2c3.79,7.87,6.21,17.89.44,25.52-.57-.11-.08-1.52.02-1.9.72-2.79,1.11-4.23,1.01-7.25-.2-5.71-3.25-10.74-1.46-16.38ZM113.99,105.43c-4.39-5.88-6.06-15.3-3.02-22.1.34-.77,2.05-3.9,2.88-3.87l1.78,1.94c-4.65,8.24-4.12,18.86.92,26.77-.28.17-2.28-2.36-2.56-2.73ZM117.58,104.75c-3.55-6.58-3.26-13.77-.25-20.5.81-1.82,3.83-7.44,6-7.34,2.23.1,5.01,4.96,5.96,6.8,3.39,6.52,6,16.77,2.66,23.67-3.99,8.25-11.19,3.29-14.37-2.63ZM116.54,134.29l3.06,4.41c-.91,5.71.3,11.41,3.12,16.41-6.54-4.06-7.68-13.89-6.19-20.82ZM127.8,126.89c.72,10.25,1.06,20.52,3.4,30.58-12.31-3.65-11.27-22.9-3.4-30.58ZM122.32,165.85c4.36,5.89,5.37,13.47,1.63,20.02-.33.58-.67,1.4-1.42,1.51.8-4.37.7-9.42-.92-13.59l-.05,9.79c.28.81-2.33,9.22-3.32,8.1-1.7-5.95-3.29-11.97-3.45-18.21-.12-4.77.52-9.51.94-14.25.53-.38,6.05,5.89,6.6,6.63ZM112.42,163.87l-.11,10.83-7.5-15.92c.53-.27,7.16,3.83,7.61,5.09ZM104.08,158.98l4.58,13.28-6.12-6.37c0-2.4.87-4.66,1.54-6.91ZM68.67,142.32c1.02-.92,6.79.81,7.75,1.74.64.62,2.25,4.82,2.95,6.06.64,1.14,1.58,2.12,2.08,3.34-1.78-.56-3.24-1.82-4.92-2.59-1.6-.73-4.51-1.38-5.74-2.18-1.4-.92-2.71-4.74-2.12-6.37ZM78.69,163.92c1.94,3.03,5.62,5.28,9.07,6.27-.18.47-.73.52-1.16.63-6.03,1.44-13.47-5.85-16.89-10.21-.7-.89-6.2-9.21-5.27-9.81,11.27.8,21.08,7.9,27.22,17.07-4.68-.57-9.07-1.04-12.97-3.94ZM93.08,163.33c-7.52-7.63-13.58-16.22-16.55-26.65,4.17.12,8.97,2.08,12.41,4.46,5.92,4.07,8.74,9.9,8.06,17.13l-4.93-8.89-3.88-3.85,4,7.22c.63,1.42,3.09,7.93,2.76,9.05-.04.12-1.74.66-1.87,1.55ZM95.63,163.49c9.38,7.62,17.5,16.89,20.02,29.06-6.69-1.46-12.15-7.04-15.14-12.96-.37.62.17,1.97.41,2.6,1.76,4.73,5.43,9.14,10.1,11.17-.29,1.55-3.11.46-4.15.05-10.3-4.07-13.85-20.14-11.24-29.92ZM77.86,180.26c11.85,4.78,22.43,14.62,28.79,25.63.22.38,1.56,2.81,1.29,3.01-4.08-4.95-8.32-9.72-13.05-14.07l-17.02-14.57ZM112.28,230.39c-.51.33-4.65-5.13-5.27-5.79-6.86-7.32-15.01-13.03-24.23-17.07l-16.58-6.54c2.51.39,5.13.19,7.64.48,16.35,1.92,28.87,11.72,37.03,25.71.23.39,1.71,3.02,1.42,3.21ZM318.79,298.62c-4.19,17.42-16.18,50.34-29.29,62.55-10.05,9.36-22.8,2.43-33.49-2.44-15.29-6.97-31.01-16.56-44.17-26.97-12.04-9.52-29.91-28.35-44.3-32.33-5.74-1.58-11.1-2.05-16.95-4.15-8.29-2.98-18.67-7.16-26.66-10.85-4.96-2.29-14.2-6.53-12.15-13.24,6.81,4.23,15.18,7.59,23.23,8.34.76.07,4.53.14,4.53-.95-.55-.76-1.82-1.03-2.7-1.35-5.06-1.84-9.94-2.86-14.98-5.18-4.64-2.14-14.42-6.65-11.06-13.03,3.65,1.09,7.02,3.1,10.65,4.41,3.63,1.31,14.92,5.09,18.13,3.65.34-.15,1.06-.58,1.05-.98-.28-.58-.77-.88-1.35-1.12-2.73-1.1-6.51-1.63-9.43-2.58-3.79-1.24-18.16-6.35-20-9.28-1.17-1.86-.31-4.87.99-6.49,8.2,3.36,16.43,7.05,25.36,8.1,2.29.27,7.08.47,7.82-2.24-4.6-1.17-9.46-1.58-14.06-2.79-4.57-1.2-11.28-3.69-15.64-5.6-2.37-1.04-3.67-1.69-2.39-4.59.85-1.91,3.83-2.06,5.63-1.87,6.37.65,13.81,2.59,20.25,3.68,6.45,1.08,13.03,1.11,19.06,3.86,6.12,2.79,11.71,7.96,17.34,11.64,4.08,8.48,5.85,14.85,13.79,20.62,13.85,10.06,36.53,19.93,52.81,25.48,15.77,5.38,32.82,8.15,46.84,17.57-3.89-7.54-11.56-11.6-18.79-15.39l6.71-23.44c.2-.22,3.13-.8,3.71-.88,11.24-1.58,29.19,5.02,37.72,12.47,2.52,2.2,2.62,1.93,1.79,5.4Z"/>
      <path class="cls-1" d="M204.9,316.46c.22.68.73,1.37,1.17,1.94,9.58,12.32,45.62,34.06,60.84,36.47.4.06,1.18.49,1.22-.1-6.1-2.33-11.72-5.62-17.32-8.93-15.64-9.24-30.66-19.54-45.91-29.38Z"/>
      <path class="cls-1" d="M250.88,86.68c4.18,1.21,7.79,3.7,11.41,5.99-1.31-8.16-8.99-13-16.47-14.94-2.79-.72-10.28-2.61-10.16,2.2.12,5.14,11.61,5.69,15.23,6.75Z"/>
      <path class="cls-1" d="M242.91,92.88c-1.29-.51-2.39-1.44-3.53-1.95-1.01-.45-.55,1.84-.43,2.3,1.46,5.62,11.03,5.8,15.43,3.72.71-.34,2.29-1.13,2.61-1.88-4.93-.21-9.41-.34-14.09-2.19Z"/>
      <path class="cls-1" d="M123.3,81.4c-.12,4.37.14,9.33.56,13.69.39,4,1.09,9.9,2.38,13.62.17.48-.22.82.69.81-.52-9.52-1.18-19.06-2.97-28.43-.4-.05-.65-.42-.67.3Z"/>
    </g>
  </g>
  <g>
    <g>
      <g>
        <path class="cls-1" d="M120.04.32h-7.8v.42l.1.05c.89.43,1.13,1.1,1.13,3.08v9.61c0,1.96-.25,2.65-1.13,3.08l-.1.05v.42h7.78c6.14,0,9.96-3.25,9.96-8.49S126.36.32,120.04.32ZM117.89,2.04h1.81c1.81,0,3.2.53,4.14,1.59.98,1.09,1.47,2.75,1.47,4.93s-.5,3.87-1.5,5.04c-.97,1.13-2.35,1.71-4.11,1.71h-1.81V2.04Z"/>
        <path class="cls-1" d="M139.18.75l.1.05c.89.43,1.13,1.1,1.13,3.08v9.61c0,1.96-.25,2.65-1.13,3.08l-.1.05v.42h6.9v-.42l-.1-.05c-.88-.43-1.15-1.15-1.15-3.08V3.87c0-1.97.25-2.63,1.15-3.08l.1-.05v-.42h-6.9v.42Z"/>
        <path class="cls-1" d="M163.41,6.86c-2.56-1.2-4-1.95-4.02-3.38,0-1.18.79-1.83,2.22-1.83,2.09,0,3.01,1.72,3.17,3.33l.02.16h3.95l-.05-.22c-.64-3.09-3.26-4.93-7.02-4.93s-6.14,1.88-6.14,4.78,2.77,4.31,5.22,5.45c3.01,1.36,4.15,2.01,4.15,3.48,0,1.29-.87,2.02-2.39,2.02-2.08,0-3.44-1.52-3.56-3.97v-.17h-4.01l.02.2c.39,3.47,3.23,5.62,7.41,5.62,3.91,0,6.44-1.96,6.44-4.99,0-2.85-2.04-4-5.41-5.56Z"/>
        <path class="cls-1" d="M177.13,3.85l.26-.12c2.45-1.15,3.65-1.69,5.03-1.73v11.48c0,1.92-.27,2.64-1.13,3.08l-.1.05v.42h6.88v-.42l-.1-.05c-.88-.43-1.13-1.12-1.13-3.08V2c1.36.03,2.55.56,5.01,1.73l.26.12V.32h-14.98v3.53Z"/>
        <path class="cls-1" d="M215.74,4.63c0-2.9-2.3-4.3-7.02-4.3h-7.63v.42l.1.05c.89.43,1.13,1.1,1.13,3.08v9.61c0,1.96-.25,2.65-1.13,3.08l-.1.05v.42h6.96v-.43l-.1-.05c-.94-.43-1.21-1.12-1.21-3.07v-4.16h.67l4.8,7.62.05.08h4.99v-.41l-5.71-7.69c2.75-.49,4.2-1.97,4.2-4.3ZM206.74,1.98h1.14c2.29,0,3.45.91,3.45,2.71,0,2.03-1.21,3.01-3.71,3.01h-.88V1.98Z"/>
        <path class="cls-1" d="M225.87.75l.1.05c.89.43,1.13,1.1,1.13,3.08v9.61c0,1.96-.25,2.65-1.13,3.08l-.1.05v.42h6.9v-.42l-.1-.05c-.88-.43-1.15-1.15-1.15-3.08V3.87c0-1.97.25-2.63,1.15-3.08l.1-.05v-.42h-6.9v.42Z"/>
        <path class="cls-1" d="M257.4,9.43c-.59,3.21-2.6,5.06-5.52,5.06-3.32,0-5.22-2.33-5.22-6.41,0-3,1.38-6.23,4.42-6.23,2.11,0,3.59,1.61,4.05,4.43l.02.15h4.29l-.05-.22c-.96-3.92-4.01-6.16-8.38-6.16-5.41,0-9.05,3.51-9.05,8.73s3.51,8.58,8.73,8.58c4.81,0,8.11-2.94,8.84-7.86l.03-.21h-2.13l-.03.15Z"/>
        <path class="cls-1" d="M267.54.32v3.53l.26-.12c2.45-1.15,3.65-1.69,5.03-1.73v11.48c0,1.92-.27,2.64-1.13,3.08l-.1.05v.42h6.88v-.42l-.1-.05c-.88-.43-1.13-1.12-1.13-3.08V2c1.36.03,2.55.56,5.01,1.73l.26.12V.32h-14.98Z"/>
      </g>
      <g>
        <path class="cls-1" d="M109.73,383.35l.12.04c.71.23,1,.66.49,2.3l-2.42,8.07-3.19-10.13-.04-.12h-2.1l-3.17,10.23-2.44-8.03c-.43-1.36-.28-2.01.54-2.32l.12-.04v-.43h-7.07v.42l.1.05c.68.34,1.12,1.02,1.64,2.51l4.6,13.6.04.12h2.49l.02-.16c.04-.35.15-.78.36-1.41l2.72-8.29,3.22,9.86h2.64l.02-.15c.06-.42.14-.9.34-1.5l3.86-12.15c.45-1.41.93-2.13,1.62-2.41l.11-.05v-.43h-4.61v.44Z"/>
        <path class="cls-1" d="M133.34,383.33l.1.05c.89.43,1.13,1.1,1.13,3.08v3.62h-6.14v-3.62c0-1.97.25-2.63,1.15-3.08l.1-.05v-.42h-6.9v.42l.1.05c.89.43,1.13,1.1,1.13,3.08v9.61c0,1.96-.25,2.65-1.13,3.08l-.1.05v.42h6.9v-.42l-.1-.05c-.88-.43-1.15-1.15-1.15-3.08v-4.2h6.14v4.2c0,1.96-.25,2.65-1.13,3.08l-.1.05v.42h6.9v-.42l-.1-.05c-.88-.43-1.13-1.12-1.13-3.08v-9.61c0-1.98.24-2.64,1.13-3.08l.1-.05v-.42h-6.9v.42Z"/>
        <path class="cls-1" d="M158.8,382.61c-5.6,0-9.35,3.49-9.35,8.69s3.76,8.69,9.35,8.69,9.33-3.48,9.33-8.66-3.75-8.71-9.33-8.71ZM158.8,398.2c-2.91,0-4.66-2.57-4.66-6.88s1.74-6.9,4.66-6.9,4.66,2.57,4.66,6.88-1.74,6.9-4.66,6.9Z"/>
        <path class="cls-1" d="M184.33,397.83h-1.33v-11.37c0-1.97.25-2.63,1.15-3.08l.1-.05v-.42h-6.9v.42l.1.05c.89.43,1.13,1.1,1.13,3.08v9.61c0,1.96-.25,2.65-1.13,3.08l-.1.05v.42h12.97v-3.66l-.27.15c-2.37,1.31-3.76,1.73-5.72,1.73Z"/>
        <path class="cls-1" d="M206.32,397.89h-1.38v-6.14h.9c.86,0,2.61.05,4.59.36l.21.03v-2.42l-.2.02c-1.59.18-3.39.37-4.6.37h-.9v-5.49h1.31c1.5,0,2.71.5,5.32,1.65l.25.11v-3.48h-12.53v.42l.1.05c.89.43,1.13,1.1,1.13,3.08v9.61c0,1.96-.25,2.65-1.13,3.08l-.1.05v.42h13.05v-3.59l-.26.14c-2.42,1.29-3.88,1.73-5.77,1.73Z"/>
        <path class="cls-1" d="M229.4,389.45c-2.56-1.2-4-1.95-4.02-3.38,0-1.18.79-1.83,2.22-1.83,2.09,0,3.01,1.72,3.17,3.33l.02.16h3.95l-.05-.22c-.64-3.09-3.26-4.93-7.02-4.93s-6.14,1.88-6.14,4.78,2.77,4.31,5.22,5.45c3.01,1.36,4.15,2.01,4.15,3.48,0,1.29-.87,2.02-2.39,2.02-2.08,0-3.44-1.52-3.56-3.97v-.17h-4.01l.02.2c.39,3.47,3.23,5.62,7.41,5.62,3.91,0,6.44-1.96,6.44-4.99,0-2.85-2.04-4-5.41-5.56Z"/>
        <path class="cls-1" d="M258.7,396.67l-5.09-13.64-.04-.12h-4.63l.16.27c.28.47.32.98.12,1.51l-4.36,11.83c-.59,1.65-1.41,2.25-2.2,2.64l-.1.05v.4h5.28v-.41l-.12-.04c-1.06-.39-1.21-.91-.69-2.43l.71-2.04h5.64l.69,2.12c.43,1.36.21,1.96-.88,2.35l-.12.04v.41h7.63v-.42l-.1-.05c-.83-.38-1.38-1.1-1.89-2.47ZM250.64,386.25l2.2,6.79h-4.55l2.35-6.79Z"/>
        <path class="cls-1" d="M276.18,397.83h-1.33v-11.37c0-1.97.25-2.63,1.15-3.08l.1-.05v-.42h-6.9v.42l.1.05c.89.43,1.13,1.1,1.13,3.08v9.61c0,1.96-.25,2.65-1.13,3.08l-.1.05v.42h12.97v-3.66l-.27.15c-2.37,1.31-3.76,1.73-5.72,1.73Z"/>
        <path class="cls-1" d="M303.94,396.17c-2.42,1.29-3.88,1.73-5.77,1.73h-1.38v-6.14h.9c.87,0,2.61.05,4.59.36l.21.03v-2.42l-.2.02c-1.59.18-3.39.37-4.6.37h-.9v-5.49h1.31c1.5,0,2.71.5,5.32,1.65l.25.11v-3.48h-12.53v.42l.1.05c.89.43,1.13,1.1,1.13,3.08v9.61c0,1.96-.25,2.65-1.13,3.08l-.1.05v.42h13.05v-3.59l-.26.14Z"/>
      </g>
    </g>
    <g>
      <g>
        <path class="cls-1" d="M399.17,119.23l-.05.1c-.43.89-1.1,1.13-3.08,1.13h-9.61c-1.96,0-2.65-.25-3.08-1.13l-.05-.1h-.42v6.96h.42l.05-.1c.44-.93,1.15-1.21,3.07-1.21h4.48s0,.6,0,.6c0,1.25-.11,3.32-.37,5.11l-.03.2h2.48l-.02-.2c-.23-1.96-.39-4.05-.39-5.18v-.53s5.25,0,5.25,0v1.33c0,1.83-.38,3.16-1.65,5.71l-.13.26h3.51v-12.94h-.42Z"/>
        <path class="cls-1" d="M384.67,148.26v-1.33s11.37,0,11.37,0c1.97,0,2.63.25,3.08,1.15l.05.1h.42v-6.9h-.42l-.05.1c-.43.89-1.1,1.13-3.08,1.13h-9.61c-1.96,0-2.65-.25-3.08-1.13l-.05-.1h-.42v12.97h3.66s-.15-.27-.15-.27c-1.31-2.37-1.73-3.76-1.73-5.72Z"/>
        <path class="cls-1" d="M399.89,171.68c0-5.6-3.49-9.35-8.69-9.35s-8.69,3.76-8.69,9.35c0,5.58,3.48,9.33,8.66,9.33,5.21,0,8.71-3.75,8.71-9.33ZM384.31,171.68c0-2.91,2.57-4.66,6.88-4.66,4.32,0,6.9,1.74,6.9,4.66,0,2.91-2.57,4.66-6.88,4.66s-6.9-1.74-6.9-4.66Z"/>
        <path class="cls-1" d="M399.15,207.7l-.04.12c-.23.71-.66,1-2.3.49l-8.07-2.42,10.13-3.19.12-.04v-2.1s-10.23-3.17-10.23-3.17l8.03-2.44c1.36-.43,2.01-.28,2.32.54l.04.12h.43v-7.07h-.42l-.05.1c-.34.67-1.02,1.12-2.51,1.64l-13.6,4.6-.12.04v2.49l.16.02c.35.04.78.15,1.41.36l8.29,2.72-9.86,3.22v2.64l.15.02c.42.06.9.14,1.5.34l12.15,3.86c1.41.45,2.13.93,2.41,1.62l.05.11h.43v-4.61h-.44Z"/>
        <path class="cls-1" d="M384.61,227.78v-1.38s6.14,0,6.14,0v.9c0,.86-.05,2.61-.36,4.59l-.03.21h2.42l-.02-.2c-.18-1.59-.37-3.39-.37-4.6v-.9s5.49,0,5.49,0v1.31c0,1.5-.5,2.71-1.65,5.32l-.11.25h3.48v-12.53h-.42l-.05.1c-.43.89-1.1,1.13-3.08,1.13h-9.61c-1.96,0-2.65-.25-3.08-1.13l-.05-.1h-.42v13.05h3.59s-.14-.26-.14-.26c-1.29-2.42-1.73-3.88-1.73-5.77Z"/>
        <path class="cls-1" d="M395.29,257.63c2.9,0,4.3-2.3,4.3-7.02v-7.63h-.42l-.05.1c-.43.89-1.1,1.13-3.08,1.13h-9.61c-1.96,0-2.65-.25-3.08-1.13l-.05-.1h-.42v6.96h.43l.05-.1c.43-.94,1.12-1.21,3.07-1.21h4.16s0,.67,0,.67l-7.62,4.8-.08.05v4.98h.41s7.69-5.71,7.69-5.71c.49,2.75,1.97,4.2,4.3,4.2ZM397.94,248.63v1.14c0,2.29-.91,3.45-2.71,3.45-2.03,0-3.01-1.21-3.01-3.71v-.88s5.73,0,5.73,0Z"/>
        <path class="cls-1" d="M393.06,275.36c1.2-2.56,1.95-4,3.38-4.02,1.18,0,1.83.79,1.83,2.22,0,2.09-1.72,3.01-3.33,3.17l-.16.02v3.95s.22-.05.22-.05c3.09-.64,4.93-3.26,4.93-7.02,0-3.73-1.88-6.14-4.78-6.14-3.01,0-4.31,2.77-5.45,5.22-1.36,3.01-2.01,4.15-3.48,4.15-1.29,0-2.02-.87-2.02-2.39,0-2.08,1.52-3.44,3.97-3.56h.17v-4.01l-.2.02c-3.47.39-5.62,3.23-5.62,7.41,0,3.91,1.96,6.44,4.99,6.44,2.85,0,4-2.04,5.56-5.41Z"/>
      </g>
      <g>
        <path class="cls-1" d="M3.76,148.1h9.61c1.98,0,2.64.23,3.08,1.09l.05.1h.42v-5.81l-10.76-4.2,10.65-4.21.11-.04v-5.96h-.42l-.05.1c-.44.86-1.1,1.09-3.08,1.09H3.76c-1.95,0-2.64-.28-3.07-1.25l-.05-.11H.22v4.94h.43l.05-.11c.43-1.05,1.12-1.36,3.07-1.36h8.97L.11,137.5l-.11.05v1.15l12.82,5.12H3.76c-1.95,0-2.64-.28-3.07-1.23l-.05-.11H.22v6.86h.42l.05-.1c.43-.88,1.12-1.13,3.08-1.13Z"/>
        <path class="cls-1" d="M3.16,173.95l13.64-5.09.12-.04v-4.63l-.27.16c-.47.28-.98.32-1.51.12l-11.83-4.36c-1.65-.59-2.25-1.41-2.64-2.2l-.05-.1H.22v5.28h.41l.04-.12c.39-1.06.91-1.21,2.43-.69l2.04.71v5.64l-2.12.69c-1.36.43-1.96.21-2.35-.88l-.04-.12H.22v7.63h.42l.05-.1c.38-.83,1.1-1.38,2.47-1.89ZM13.58,165.9l-6.79,2.2v-4.55l6.79,2.35Z"/>
        <path class="cls-1" d="M12.61,199.11c2.9,0,4.3-2.3,4.3-7.02v-7.63h-.42l-.05.1c-.43.89-1.1,1.13-3.08,1.13H3.76c-1.96,0-2.65-.25-3.08-1.13l-.05-.1H.22v6.96h.43l.05-.1c.43-.94,1.12-1.21,3.07-1.21h4.16v.67l-7.62,4.8-.08.05v4.99h.41l7.69-5.71c.49,2.75,1.97,4.2,4.3,4.2ZM15.26,190.1v1.14c0,2.29-.91,3.45-2.71,3.45-2.03,0-3.01-1.21-3.01-3.71v-.88h5.73Z"/>
        <path class="cls-1" d="M14.69,222.49c.87.85,1.27,1.75,1.66,3.01l.04.13h.53v-4.21l-.09-.05c-.71-.43-1.5-.94-2.43-1.81l-4.98-4.68h3.95c1.98,0,2.64.24,3.08,1.13l.05.1h.42v-6.88h-.42l-.05.1c-.43.89-1.1,1.13-3.08,1.13H3.76c-1.96,0-2.65-.25-3.08-1.13l-.05-.1H.22v6.88h.42l.05-.1c.43-.88,1.12-1.13,3.08-1.13h3.29l.76.75-7.61,5.43v5.04h.44l9.88-7.76,4.16,4.14Z"/>
        <path class="cls-1" d="M1.94,241.57v-1.38h6.14v.9c0,.87-.05,2.61-.36,4.59l-.03.21h2.42l-.02-.2c-.18-1.59-.37-3.39-.37-4.6v-.9h5.49v1.31c0,1.5-.5,2.71-1.65,5.32l-.11.25h3.48v-12.53h-.42l-.05.1c-.43.89-1.1,1.13-3.08,1.13H3.76c-1.96,0-2.65-.25-3.08-1.13l-.05-.1H.22v13.05h3.59l-.14-.26c-1.29-2.42-1.73-3.88-1.73-5.77Z"/>
        <path class="cls-1" d="M16.92,256.13h-3.53l.12.26c1.15,2.45,1.69,3.65,1.73,5.03H3.76c-1.92,0-2.64-.27-3.08-1.13l-.05-.1H.22v6.88h.42l.05-.1c.43-.88,1.12-1.13,3.08-1.13h11.48c-.03,1.36-.56,2.55-1.73,5.01l-.12.26h3.53v-14.98Z"/>
      </g>
    </g>
  </g>
</svg>