<?xml version="1.0" encoding="UTF-8"?>
<svg id="Layer_1" data-name="Layer 1" xmlns="http://www.w3.org/2000/svg" viewBox="0 0 554.19 354.27">
  <defs>
    <style>
      .cls-1 {
        fill: #826ba0;
      }
    </style>
  </defs>
  <g>
    <path class="cls-1" d="M157.84,353.27c1.95-.96,2.37-2.62,2.37-6.23v-18.49c0-3.74-.42-5.28-2.37-6.23v-.25h24.22v5.86c-4.78-2.37-7.39-3.2-11.13-3.2h-2.91v10.8h1.37c2.37,0,6.48-.33,10.01-.75v3.99c-3.53-.5-7.56-.71-9.89-.71h-1.5v8.97c0,3.61.5,5.28,2.53,6.23v.25h-12.71v-.25Z"/>
    <path class="cls-1" d="M187.76,353.27c1.95-.96,2.37-2.62,2.37-6.23v-18.49c0-3.74-.42-5.28-2.37-6.23v-.25h12.59v.25c-1.95.96-2.41,2.49-2.41,6.23v22.22h2.91c3.61,0,6.36-.71,11.17-3.36v6.11h-24.26v-.25Z"/>
    <path class="cls-1" d="M217.23,337.86c0-10.01,7.19-16.37,17.65-16.37s17.61,6.36,17.61,16.41-7.19,16.33-17.61,16.33-17.65-6.36-17.65-16.37ZM234.88,351.49c5.98,0,9.31-5.4,9.31-13.63s-3.32-13.58-9.31-13.58-9.31,5.4-9.31,13.63,3.32,13.58,9.31,13.58Z"/>
    <path class="cls-1" d="M255.68,322.33v-.25h12.92v.25c-1.87.71-2.08,2.29-1.25,4.9l5.03,16.53,6.36-20.52h3.53l6.48,20.56,4.98-16.62c.91-2.91.66-4.28-1.16-4.86v-.25h8.18v.25c-1.41.58-2.41,1.99-3.32,4.86l-7.44,23.39c-.37,1.16-.54,2.08-.66,2.95h-4.53l-6.44-19.73-5.57,16.95c-.42,1.25-.62,2.08-.71,2.78h-4.24l-8.85-26.17c-.96-2.74-1.83-4.28-3.32-5.03Z"/>
    <path class="cls-1" d="M304.7,353.27c1.95-.96,2.37-2.62,2.37-6.23v-18.49c0-3.74-.42-5.28-2.37-6.23v-.25h23.43v5.82c-5.03-2.2-7.44-3.2-10.38-3.2h-2.87v11.26h2.08c2.28,0,5.52-.33,8.89-.71v3.86c-3.36-.54-6.6-.71-8.89-.71h-2.08v12.5h2.99c3.49,0,6.27-.71,11.26-3.36v5.98h-24.43v-.25Z"/>
    <path class="cls-1" d="M335.91,353.27c1.95-.96,2.37-2.62,2.37-6.23v-18.49c0-3.74-.42-5.28-2.37-6.23v-.25h14.33c8.1,0,13.17,2.08,13.17,7.93,0,4.82-3.32,7.27-8.35,8.02l11.26,15.16v.33h-9.06l-9.35-14.83h-1.83v8.35c0,3.61.46,5.28,2.53,6.23v.25h-12.71v-.25ZM348.12,336.28c4.49,0,7.48-1.66,7.48-6.15,0-3.99-2.78-5.57-6.98-5.57h-2.53v11.71h2.04Z"/>
    <path class="cls-1" d="M370.39,343.76h6.98c.21,4.57,2.7,7.98,7.19,7.98,2.95,0,4.94-1.41,4.94-4.24,0-3.12-2.58-4.49-8.18-7.02-5.32-2.49-9.85-4.86-9.85-10.18,0-5.77,4.99-8.85,11.47-8.85s11.88,2.99,13.17,9.22h-6.85c-.37-3.74-2.53-6.73-6.44-6.73-3.07,0-4.61,1.54-4.61,3.86.04,3.03,3.07,4.53,7.93,6.81,6.11,2.82,10.22,4.99,10.22,10.38,0,5.82-4.9,9.26-12.05,9.26s-13.13-3.53-13.92-10.51Z"/>
  </g>
  <g>
    <path class="cls-1" d="M0,282.15c6.4-1.19,8.14-4.03,8.14-14.46v-38.7c0-10.61-1.74-13.27-8.14-14.45v-.82h38.33c25.07,0,41.63,10.61,41.63,34.49s-16.19,34.76-41.63,34.76H0v-.82ZM36.05,280.59c13.45,0,21.41-10.7,21.41-32.39s-8.23-32.11-21.41-32.11h-7.23v64.5h7.23Z"/>
    <path class="cls-1" d="M87.51,282.15c6.4-1.19,8.14-4.03,8.14-14.46v-38.7c0-10.61-1.74-13.27-8.14-14.45v-.82h37.05v.82c-6.5,1.19-8.24,3.84-8.24,14.45v38.7c0,10.43,1.74,13.27,8.14,14.46v.82h-36.96v-.82Z"/>
    <path class="cls-1" d="M131.3,262.11h16.92c.37,10.61,5.76,19.94,15.74,20.04,5.31,0,9.24-2.93,9.24-8.87,0-7.04-5.22-10.61-16.56-16.47-10.43-5.4-23.15-11.34-23.15-24.24s11.34-20.22,26.35-20.22c13.63,0,26.53,5.21,29.91,19.21h-16.74c-.64-8.78-4.94-16.83-13.91-16.83-6.13,0-9.15,3.29-8.96,8.23.18,7.04,7.32,11.25,17.75,16.65,12.99,6.77,22.51,11.89,22.51,24.06,0,12.9-10.71,20.95-27.35,20.95-15.28,0-29.82-6.77-31.75-22.51Z"/>
    <path class="cls-1" d="M199.2,213.72h67.7v15.37c-12.07-8.69-17.29-12.72-23.51-12.99v51.6c0,10.43,1.74,13.27,8.14,14.46v.82h-36.96v-.82c6.4-1.19,8.05-4.03,8.05-14.46v-51.6c-6.22.27-11.35,4.3-23.42,12.99v-15.37Z"/>
    <path class="cls-1" d="M275.61,282.15c6.4-1.19,8.14-4.03,8.14-14.46v-38.7c0-10.61-1.74-13.27-8.14-14.45v-.82h36.69c19.21,0,31.56,3.2,31.56,16.47,0,10.52-7.04,15.28-18.11,17.02l25.98,35.04v.73h-24.24l-20.86-34.76h-2.2v19.49c0,10.43,1.92,13.27,8.97,14.46v.82h-37.78v-.82ZM306.08,245.83c9.88,0,16.74-3.84,16.74-15.74,0-9.79-6.4-14-15.55-14h-2.84v29.73h1.65Z"/>
    <path class="cls-1" d="M360.43,282.15c6.4-1.19,8.14-4.03,8.14-14.46v-38.7c0-10.61-1.74-13.27-8.14-14.45v-.82h37.05v.82c-6.5,1.19-8.24,3.84-8.24,14.45v38.7c0,10.43,1.74,13.27,8.14,14.46v.82h-36.96v-.82Z"/>
    <path class="cls-1" d="M405.03,249.03c0-23.42,17.38-36.59,38.06-36.59,17.2,0,29.46,8.78,33.85,24.79h-19.03c-1.01-11.98-4.94-22.23-14.36-22.23-11.34,0-16.01,14.64-16.01,28.73,0,19.49,7.96,29.73,22.6,29.73s22.32-9.33,25.25-24.06h2.29c-3.38,20.58-15.18,34.95-36.87,34.95s-35.77-14-35.77-35.31Z"/>
    <path class="cls-1" d="M486.49,213.72h67.7v15.37c-12.08-8.69-17.29-12.72-23.51-12.99v51.6c0,10.43,1.74,13.27,8.14,14.46v.82h-36.96v-.82c6.4-1.19,8.05-4.03,8.05-14.46v-51.6c-6.22.27-11.34,4.3-23.42,12.99v-15.37Z"/>
  </g>
  <g>
    <path class="cls-1" d="M303.56,142.33c-3.23-1.86-6.21-4.16-8.92-6.89-3.42,8.05-7.75,14.5-12.87,19.01-1.49,1.31-3.05,2.46-4.66,3.44-2.32,1.4-4.76,2.45-7.33,3.12-2.27.6-4.64.91-7.09.91h-19.69c-9.23,0-13.93-2.14-15.27-13.74-3.89.02-10.97.03-11.06.03h-2.88c-1.17,12.96-4.54,14.67-11.66,14.67v4.3h43.06c1.01,0,16.41-.02,17.4-.08,2.13-.11,4.21-.34,6.24-.67h0c2.87-.48,5.63-1.19,8.27-2.13,2.55-.89,5-1.99,7.33-3.29,2.26-1.26,4.42-2.7,6.46-4.32,4.83-3.81,9.07-8.62,12.67-14.37Z"/>
    <path class="cls-1" d="M213.8,18.96c.14,1.57.24,3.3.32,5.22.05,1.18.09,2.43.11,3.74.03,1.62.05,3.37.05,5.22v100.89c.23,0,.46,0,.71,0h12.32V23.88c0-1.77.06-3.37.19-4.83.96-11.36,5.72-13.8,15.19-13.8,1.62,0,13.92.09,18.4.26,2.41-1.72,4.95-3.23,7.61-4.54-1.99-.35-4.03-.61-6.13-.77-1.74-.13-17.93-.2-19.73-.2h-40.72v4.3c7.17,0,10.53,1.72,11.69,14.66Z"/>
    <path class="cls-1" d="M257.93,110.15c.86,5.31,2,10.29,3.4,14.87,6.82-10.32,10.58-24.79,10.58-42.62s-3.64-30.98-10.46-40.81c-1.18-1.71-2.46-3.3-3.84-4.76-2.95-3.16-6.35-5.74-10.15-7.73-1.53-.81-3.13-1.52-4.79-2.12-3.15-1.16-6.53-1.96-10.14-2.4v4.02c2.84.59,5.48,1.57,7.91,2.91,1.56.85,3.02,1.85,4.4,2.99,3.86,3.19,7.07,7.47,9.59,12.75,1.34,2.81,2.48,5.9,3.43,9.25,2.13,7.58,3.23,16.51,3.23,26.58s-1.1,19.24-3.17,27.06h0Z"/>
    <path class="cls-1" d="M214.11,143h2.55c.56,0,6.99-.01,10.7-.03,1.36,0,2.35-.01,2.55-.02.91-.04,1.79-.11,2.67-.21,3.82-.41,7.41-1.29,10.75-2.64-.67-1.28-1.32-2.6-1.93-3.95-2.72,1.61-5.68,2.63-8.86,2.98-.84.1-1.69.15-2.56.15h-14.99c-.26,0-.52,0-.77,0-2.04-.03-3.76-.23-5.2-.71-4.17-1.41-5.96-5.29-5.96-15.07V41.16c0-7.97,1.86-11.34,5.96-12.58-.02-1.47-.06-2.95-.12-4.39h-25.03v3.06c7.03,0,9.25,2.04,9.25,20.54v71.29c0,18.84-2.23,20.88-9.25,20.88v3.05h30.23Z"/>
    <path class="cls-1" d="M340.41,148.22c-.15-1.57-.25-3.3-.33-5.22-.05-1.17-.09-2.42-.11-3.74-.03-1.62-.05-3.37-.06-5.22V33.15c-.16,0-.32,0-.49,0-1.86,0-8.92.06-12.54.15v106.43c0,1.14-.02,2.22-.05,3.25-.06,1.92-.18,3.66-.36,5.22-1.34,11.61-6.03,13.75-15.27,13.75h-18.56c-2.32,1.71-4.74,3.21-7.27,4.51,2.02.34,4.11.56,6.24.67.99.05,16.39.08,17.39.08h43.07v-4.3c-7.12,0-10.5-1.71-11.66-14.67Z"/>
    <path class="cls-1" d="M262.57,10.87c-4.78,3.68-8.95,8.29-12.46,13.74,3.53,1.88,6.77,4.22,9.67,7,3.35-7.26,7.59-13.15,12.68-17.5,1.47-1.26,3.02-2.4,4.64-3.39,2.65-1.64,5.47-2.92,8.49-3.82,1.94-.59,3.96-1.02,6.05-1.29.24-.03.75-.06,1.47-.09,4.48-.17,16.79-.26,18.4-.26,9.47,0,14.23,2.44,15.19,13.8,4.48-.06,12.51-.09,12.62-.09h1.08c1.15-12.94,4.52-14.66,11.69-14.66V0h-40.72c-1.81,0-17.99.06-19.73.2-2.09.16-4.14.41-6.13.77-2.92.51-5.72,1.22-8.4,2.15-2.98,1.01-5.81,2.27-8.49,3.78-2.11,1.18-4.13,2.51-6.03,3.99Z"/>
    <path class="cls-1" d="M245.67,132.95c.74,1.68,1.53,3.3,2.36,4.86.82,1.57,1.69,3.08,2.61,4.53,3.6,5.74,7.84,10.55,12.67,14.37,2.72-.08,5.86-.66,9.13-2.24-5.12-4.51-9.46-10.96-12.87-19.01-.74-1.73-1.43-3.54-2.08-5.41-1.1-3.17-2.08-6.56-2.92-10.12-.76-3.2-1.41-6.56-1.95-10.05-1.29-8.26-1.96-17.3-1.96-26.98s.63-18.08,1.88-25.98c-1.09-3.66-2.45-6.94-4.05-9.8-1.65-2.94-3.54-5.41-5.67-7.43-4.18,11.73-6.37,25.89-6.37,42.24,0,17.76,2.48,33.16,7.1,45.79.67,1.8,1.37,3.55,2.12,5.24Z"/>
    <path class="cls-1" d="M370.32,27.24v-3.06h-31.01c-1.04,0-8.37.03-12.43.09-1.3.02-2.27.03-2.59.06-.89.06-1.77.15-2.63.26-3.61.44-6.99,1.24-10.14,2.4.78,1.47,1.53,2.98,2.23,4.53,2.44-1.34,5.08-2.32,7.91-2.91.86-.18,1.74-.32,2.64-.44.32-.04,1.29-.08,2.58-.1,4.08-.1,11.46-.15,12.54-.15.18,0,.36,0,.54,0,2.02.02,3.76.2,5.21.65,4.1,1.25,5.96,4.62,5.96,12.58v82.32c0,9.78-1.79,13.66-5.96,15.07.02,1.49.06,2.99.13,4.45h25.01v-3.05c-7.03,0-9.26-2.04-9.26-20.88V47.78c0-18.5,2.23-20.54,9.26-20.54Z"/>
    <path class="cls-1" d="M292.74,41.6c-6.82,9.83-10.46,23.61-10.46,40.81s3.76,32.29,10.58,42.62c1.19,1.8,2.47,3.47,3.85,5.01,2.79,3.14,5.95,5.75,9.46,7.77,1.5.87,3.07,1.64,4.69,2.29,3.34,1.35,6.92,2.23,10.75,2.64.03-.95.05-1.96.05-3.02v-.6c-3.18-.35-6.14-1.36-8.86-2.98-1.5-.88-2.92-1.96-4.27-3.2-3.52-3.24-6.51-7.65-8.89-13.04-1.31-2.96-2.44-6.23-3.37-9.75h0c-2.07-7.83-3.17-16.95-3.17-27.07s1.1-19,3.23-26.58c-.9-5.41-2.09-10.39-3.58-14.91Z"/>
    <path class="cls-1" d="M309.34,34.5c-.81-1.87-1.68-3.67-2.61-5.4-.84-1.55-1.72-3.05-2.65-4.49-3.52-5.45-7.68-10.05-12.46-13.74-3.53.53-6.83,1.62-9.89,3.23,5.09,4.35,9.34,10.24,12.68,17.5.77,1.67,1.5,3.41,2.16,5.23,1.22,3.25,2.27,6.73,3.17,10.42.74,3.07,1.38,6.28,1.9,9.64,1.25,7.9,1.88,16.59,1.88,25.98s-.67,18.72-1.96,26.98c1.19,4.24,2.7,8.04,4.5,11.35,1.39,2.54,2.91,4.71,4.56,6.5,4.62-12.63,7.1-28.03,7.1-45.79,0-16.35-2.18-30.51-6.36-42.24-.63-1.78-1.31-3.51-2.04-5.18Z"/>
  </g>
</svg>